<?xml version="1.0" encoding="UTF-8" standalone="no"?><!DOCTYPE svg PUBLIC "-//W3C//DTD SVG 1.1//EN" "http://www.w3.org/Graphics/SVG/1.1/DTD/svg11.dtd"><svg width="100%" height="100%" viewBox="0 0 400 300" version="1.1" xmlns="http://www.w3.org/2000/svg" xmlns:xlink="http://www.w3.org/1999/xlink" xml:space="preserve" xmlns:serif="http://www.serif.com/" style="fill-rule:evenodd;clip-rule:evenodd;stroke-linejoin:round;stroke-miterlimit:2;"><g><rect x="361.174" y="59.385" width="4.884" height="1" style="fill:#d1d2d3;fill-rule:nonzero;"/><rect x="10.992" y="58.993" width="4.884" height="1" style="fill:#d1d2d3;fill-rule:nonzero;"/><rect x="42.385" y="58.993" width="4.884" height="1" style="fill:#d1d2d3;fill-rule:nonzero;"/><rect x="32.617" y="58.993" width="4.884" height="1" style="fill:#d1d2d3;fill-rule:nonzero;"/><rect x="22.848" y="58.993" width="4.885" height="1" style="fill:#d1d2d3;fill-rule:nonzero;"/><rect x="52.153" y="58.993" width="2.5" height="1" style="fill:#d1d2d3;fill-rule:nonzero;"/><g><rect x="357.751" y="221.091" width="2.5" height="1" style="fill:#d1d2d3;fill-rule:nonzero;"/><path d="M349.112,229.042l-19.33,0c-0.36,0 -0.704,-0.15 -0.948,-0.415c-3.369,-3.651 -8.15,-5.746 -13.119,-5.746l-17.323,0c-0.988,0 -1.791,0.804 -1.791,1.792l0,3.08c0,0.712 -0.577,1.289 -1.289,1.289c-0.713,0 -1.289,-0.577 -1.289,-1.289l0,-3.08c0,-2.41 1.96,-4.37 4.369,-4.37l17.323,0c5.496,0 10.791,2.238 14.621,6.161l18.776,0c0.713,0 1.289,0.577 1.289,1.289c0,0.712 -0.576,1.289 -1.289,1.289Z" style="fill:#414043;fill-rule:nonzero;"/><path d="M284.667,235.204c-0.713,0 -1.289,-0.577 -1.289,-1.289l0,-3.081c0,-2.409 1.961,-4.37 4.371,-4.37l23.335,0c0.712,0 1.289,0.577 1.289,1.289c0,0.712 -0.577,1.289 -1.289,1.289l-23.335,0c-0.989,0 -1.793,0.804 -1.793,1.792l0,3.081c0,0.712 -0.577,1.289 -1.289,1.289Z" style="fill:#414043;fill-rule:nonzero;"/><path d="M285.749,241.366l-2.525,0c-2.409,0 -4.371,-1.961 -4.371,-4.37c0,-2.41 1.962,-4.37 4.371,-4.37l27.86,0c0.712,0 1.289,0.577 1.289,1.289c0,0.712 -0.577,1.289 -1.289,1.289l-27.86,0c-0.988,0 -1.793,0.804 -1.793,1.792c0,0.988 0.805,1.792 1.793,1.792l2.525,0c0.713,0 1.29,0.577 1.29,1.289c0,0.712 -0.577,1.289 -1.29,1.289Z" style="fill:#414043;fill-rule:nonzero;"/><path d="M295.312,247.527l-7.563,0c-2.41,0 -4.371,-1.96 -4.371,-4.369l0,-3.081c0,-0.712 0.576,-1.289 1.289,-1.289l26.417,0c0.712,0 1.289,0.577 1.289,1.289c0,0.712 -0.577,1.289 -1.289,1.289l-25.128,0l0,1.792c0,0.988 0.804,1.791 1.793,1.791l7.563,0c0.712,0 1.289,0.577 1.289,1.289c0,0.712 -0.577,1.289 -1.289,1.289Z" style="fill:#414043;fill-rule:nonzero;"/><path d="M321.066,253.181c-0.584,0 -1.114,-0.401 -1.254,-0.994c-0.162,-0.694 0.267,-1.388 0.961,-1.551c3.43,-0.807 6.519,-2.593 8.931,-5.165l0.106,-0.112c0.243,-0.262 0.584,-0.41 0.942,-0.41l10.399,0c0.712,0 1.289,0.577 1.289,1.289c0,0.712 -0.577,1.289 -1.289,1.289l-9.846,0c-2.719,2.788 -6.148,4.727 -9.944,5.62c-0.098,0.023 -0.197,0.034 -0.295,0.034Z" style="fill:#414043;fill-rule:nonzero;"/><path d="M290.018,252.132c-0.448,0 -0.884,-0.234 -1.121,-0.652c-0.373,-0.656 -0.571,-1.404 -0.571,-2.161l0,-3.081c0,-0.712 0.577,-1.289 1.289,-1.289l10.322,0c0.713,0 1.289,0.577 1.289,1.289c0,0.712 -0.576,1.289 -1.289,1.289l-9.033,0l0,1.792c0,0.312 0.081,0.619 0.233,0.887c0.353,0.618 0.136,1.405 -0.483,1.757c-0.201,0.114 -0.42,0.169 -0.636,0.169Z" style="fill:#414043;fill-rule:nonzero;"/><path d="M307.77,174.189c-26.139,0 -47.403,21.264 -47.403,47.403c0,26.138 21.264,47.402 47.403,47.402c26.137,0 47.402,-21.264 47.402,-47.402c0,-26.139 -21.265,-47.403 -47.402,-47.403Zm0,97.383c-27.559,0 -49.981,-22.421 -49.981,-49.98c0,-27.561 22.422,-49.982 49.981,-49.982c27.559,0 49.981,22.421 49.981,49.982c0,27.559 -22.422,49.98 -49.981,49.98Z" style="fill:#414043;fill-rule:nonzero;"/><path d="M282.816,197.701c-0.305,0 -0.608,-0.126 -0.831,-0.372l-6.098,-6.712c-0.43,-0.473 -0.408,-1.217 0.052,-1.662c0.458,-0.443 1.179,-0.419 1.609,0.053l5.378,5.919l7.253,-6.005l-5.059,-5.389c-0.439,-0.467 -0.428,-1.212 0.023,-1.664c0.451,-0.45 1.172,-0.441 1.611,0.028l5.931,6.315c0.224,0.238 0.339,0.562 0.319,0.892c-0.019,0.33 -0.173,0.637 -0.424,0.845l-9.051,7.493c-0.21,0.174 -0.462,0.259 -0.713,0.259Z" style="fill:#414043;fill-rule:nonzero;"/><path d="M294.933,205.009l-5.966,0c-0.556,0 -1.009,-0.461 -1.018,-1.034c-0.078,-5.598 -3.692,-7.991 -3.728,-8.015c-0.477,-0.307 -0.622,-0.954 -0.325,-1.446c0.299,-0.492 0.926,-0.643 1.401,-0.335c0.179,0.115 4.139,2.735 4.637,8.731l3.923,-0c-0.206,-2.388 -1.108,-8.188 -5.077,-10.72c-0.477,-0.304 -0.625,-0.951 -0.329,-1.446c0.295,-0.492 0.924,-0.644 1.399,-0.34c6.002,3.831 6.1,13.157 6.101,13.551c0.001,0.28 -0.106,0.548 -0.297,0.746c-0.19,0.197 -0.45,0.308 -0.721,0.308Z" style="fill:#414043;fill-rule:nonzero;"/><path d="M271.241,232.822c-0.586,0 -1.115,-0.402 -1.254,-0.997c-1.465,-6.29 2.591,-9.492 5.545,-10.568c0.775,-4.896 4.717,-7.164 7.503,-7.904c0.031,-1.694 0.538,-3.095 1.516,-4.176c1.839,-2.034 4.648,-2.058 4.766,-2.058c0.712,0 1.289,0.577 1.289,1.289c0,0.71 -0.573,1.286 -1.282,1.289c-0.032,0.001 -1.819,0.041 -2.873,1.222c-0.678,0.759 -0.946,1.885 -0.799,3.348c0.07,0.693 -0.425,1.317 -1.116,1.407c-0.244,0.034 -6.106,0.904 -6.536,6.663c-0.042,0.559 -0.438,1.025 -0.981,1.157c-0.609,0.154 -5.934,1.679 -4.522,7.747c0.163,0.693 -0.269,1.386 -0.963,1.547c-0.098,0.024 -0.196,0.034 -0.293,0.034Z" style="fill:#414043;fill-rule:nonzero;"/><path d="M311.442,218.665c-0.53,0 -1.027,-0.33 -1.215,-0.859c-1.26,-3.554 -6.438,-2.582 -6.492,-2.572c-0.691,0.134 -1.361,-0.307 -1.508,-0.994c-1.185,-5.504 -5.908,-5.003 -6.103,-4.978c-0.728,0.072 -1.35,-0.421 -1.434,-1.127c-0.084,-0.707 0.42,-1.349 1.127,-1.434c2.36,-0.274 6.94,0.646 8.623,5.846c2.735,-0.189 6.84,0.516 8.216,4.398c0.239,0.671 -0.113,1.408 -0.784,1.646c-0.142,0.05 -0.287,0.074 -0.43,0.074Z" style="fill:#414043;fill-rule:nonzero;"/><path d="M319.806,216.172c-0.344,0 -0.688,-0.138 -0.942,-0.409c-1.368,-1.464 -2.861,-2.232 -4.436,-2.281c-2.606,-0.085 -4.837,1.888 -4.857,1.908c-0.519,0.486 -1.333,0.464 -1.823,-0.055c-0.487,-0.518 -0.463,-1.334 0.055,-1.822c0.119,-0.112 2.902,-2.723 6.708,-2.609c2.285,0.074 4.383,1.116 6.236,3.098c0.486,0.521 0.459,1.336 -0.061,1.822c-0.248,0.233 -0.564,0.348 -0.88,0.348Z" style="fill:#414043;fill-rule:nonzero;"/><path d="M286.989,261.376c-0.117,0 -0.237,-0.017 -0.356,-0.052c-0.685,-0.196 -1.079,-0.91 -0.882,-1.594c0.677,-2.356 0.58,-4.136 -0.291,-5.292c-1.191,-1.583 -3.566,-1.627 -3.59,-1.627c-0.376,0 -0.732,-0.163 -0.976,-0.447c-0.245,-0.284 -0.355,-0.66 -0.3,-1.03c0.314,-2.12 -0.004,-3.676 -0.942,-4.626c-1.513,-1.536 -4.311,-1.213 -4.337,-1.208c-0.386,0.052 -0.76,-0.069 -1.04,-0.327c-0.282,-0.257 -0.435,-0.626 -0.418,-1.007c0.117,-2.703 -0.498,-4.662 -1.833,-5.82c-2.099,-1.821 -5.425,-1.23 -5.457,-1.223c-0.711,0.137 -1.373,-0.329 -1.505,-1.026c-0.132,-0.698 0.322,-1.371 1.02,-1.506c0.186,-0.034 4.56,-0.841 7.615,1.793c1.704,1.471 2.623,3.659 2.739,6.517c1.402,0.063 3.521,0.444 5.053,1.997c1.301,1.318 1.9,3.165 1.786,5.498c1.242,0.249 3.035,0.883 4.244,2.491c1.384,1.838 1.623,4.38 0.709,7.555c-0.162,0.566 -0.679,0.934 -1.239,0.934Z" style="fill:#414043;fill-rule:nonzero;"/><path d="M287.198,256.336c-0.094,0 -0.19,-0.011 -0.285,-0.031c-0.694,-0.158 -1.131,-0.848 -0.973,-1.543c0.032,-0.142 0.823,-3.498 4.002,-5.42c2.09,-1.264 4.668,-1.605 7.675,-1.018c0.474,-1.251 1.472,-3.134 3.439,-4.387c2.126,-1.357 4.8,-1.632 7.953,-0.819c0.69,0.178 1.104,0.881 0.926,1.571c-0.179,0.69 -0.888,1.1 -1.57,0.925c-2.428,-0.627 -4.421,-0.46 -5.923,0.496c-2.136,1.362 -2.669,3.951 -2.674,3.976c-0.065,0.354 -0.276,0.663 -0.579,0.856c-0.303,0.19 -0.673,0.247 -1.021,0.155c-2.827,-0.754 -5.146,-0.605 -6.892,0.451c-2.216,1.339 -2.816,3.759 -2.821,3.783c-0.136,0.599 -0.667,1.005 -1.257,1.005Z" style="fill:#414043;fill-rule:nonzero;"/><path d="M328.443,261.375c-0.665,0 -1.228,-0.51 -1.283,-1.182c-0.042,-0.418 -0.556,-3.973 -5.616,-3.858c-0.368,0.009 -0.708,-0.134 -0.958,-0.392c-0.25,-0.258 -0.381,-0.611 -0.36,-0.97c0.03,-0.599 0.15,-5.901 -4.921,-6.21c-0.711,-0.043 -1.253,-0.654 -1.208,-1.365c0.044,-0.71 0.667,-1.248 1.364,-1.208c5.343,0.326 7.055,4.568 7.315,7.603c5.118,0.421 6.796,4.139 6.953,6.194c0.054,0.71 -0.477,1.33 -1.187,1.384c-0.033,0.003 -0.066,0.004 -0.099,0.004Z" style="fill:#414043;fill-rule:nonzero;"/><path d="M296.725,211.301c0,0 -8.157,-1.003 -8.219,3.582c0,0 0.249,2.943 -2.501,3.136c-1.93,0.134 -6.293,1.444 -5.862,6.653c0,0 -0.713,1.064 -2.785,1.064c-2.073,0 -5.338,6.076 -0.454,10.935c0,0 -0.046,-4.885 4.527,-5.837c0,0 -0.328,-5.853 5.766,-6.162c5.442,-0.274 4.109,0 4.109,0c0,0 0.498,-5.788 6.37,-5.838l3.397,-0.137c0,0 0.225,-6.539 -4.348,-7.396Z" style="fill:#008080;fill-rule:nonzero;"/><path d="M289.371,262.576c0,0 5.206,4.413 17.95,4.067c12.743,-0.348 18.396,-4.165 18.396,-4.165c0,0 0.545,-4.761 -5.107,-4.017c0,0 -2.48,0.297 -2.281,-2.331c0.198,-2.628 -0.695,-6.545 -6.793,-6.297c0,0 -2.728,-3.694 -6.844,-2.578c0,0 -3.768,0.656 -3.569,5.702c0,0 -0.695,0.843 -2.529,0.248c-1.835,-0.596 -5.752,-1.952 -8.579,2.082c0,0 0.844,4.799 -0.644,7.289Z" style="fill:#008080;fill-rule:nonzero;"/></g><rect x="362.764" y="221.126" width="5.179" height="1" style="fill:#d1d2d3;fill-rule:nonzero;"/><rect x="31.437" y="221.091" width="5.179" height="1" style="fill:#d1d2d3;fill-rule:nonzero;"/><rect x="41.796" y="221.091" width="5.178" height="1" style="fill:#d1d2d3;fill-rule:nonzero;"/><rect x="5.645" y="221.091" width="5.179" height="1" style="fill:#d1d2d3;fill-rule:nonzero;"/><rect x="16.002" y="221.091" width="5.179" height="1" style="fill:#d1d2d3;fill-rule:nonzero;"/><rect x="52.153" y="221.091" width="2.5" height="1" style="fill:#d1d2d3;fill-rule:nonzero;"/><rect x="154.88" y="58.993" width="2.5" height="1" style="fill:#d1d2d3;fill-rule:nonzero;"/><rect x="172.863" y="58.993" width="5.162" height="1" style="fill:#d1d2d3;fill-rule:nonzero;"/><rect x="193.509" y="58.993" width="5.161" height="1" style="fill:#d1d2d3;fill-rule:nonzero;"/><rect x="162.541" y="58.993" width="5.161" height="1" style="fill:#d1d2d3;fill-rule:nonzero;"/><rect x="214.153" y="58.993" width="5.163" height="1" style="fill:#d1d2d3;fill-rule:nonzero;"/><rect x="203.831" y="58.993" width="5.161" height="1" style="fill:#d1d2d3;fill-rule:nonzero;"/><rect x="234.799" y="58.993" width="5.161" height="1" style="fill:#d1d2d3;fill-rule:nonzero;"/><rect x="255.444" y="58.993" width="5.162" height="1" style="fill:#d1d2d3;fill-rule:nonzero;"/><rect x="245.121" y="58.993" width="5.161" height="1" style="fill:#d1d2d3;fill-rule:nonzero;"/><rect x="224.477" y="58.993" width="5.161" height="1" style="fill:#d1d2d3;fill-rule:nonzero;"/><rect x="183.187" y="58.993" width="5.161" height="1" style="fill:#d1d2d3;fill-rule:nonzero;"/><rect x="154.512" y="221.091" width="2.5" height="1" style="fill:#d1d2d3;fill-rule:nonzero;"/><rect x="182.905" y="221.091" width="5.179" height="1" style="fill:#d1d2d3;fill-rule:nonzero;"/><rect x="193.264" y="221.091" width="5.179" height="1" style="fill:#d1d2d3;fill-rule:nonzero;"/><rect x="172.548" y="221.091" width="5.179" height="1" style="fill:#d1d2d3;fill-rule:nonzero;"/><rect x="162.191" y="221.091" width="5.178" height="1" style="fill:#d1d2d3;fill-rule:nonzero;"/><rect x="203.621" y="221.091" width="5.179" height="1" style="fill:#d1d2d3;fill-rule:nonzero;"/><rect x="213.979" y="221.091" width="5.178" height="1" style="fill:#d1d2d3;fill-rule:nonzero;"/><rect x="234.694" y="221.091" width="5.178" height="1" style="fill:#d1d2d3;fill-rule:nonzero;"/><rect x="224.336" y="221.091" width="5.179" height="1" style="fill:#d1d2d3;fill-rule:nonzero;"/><rect x="245.05" y="221.091" width="5.18" height="1" style="fill:#d1d2d3;fill-rule:nonzero;"/><rect x="2.259" y="213.066" width="1" height="5" style="fill:#d1d2d3;fill-rule:nonzero;"/><path d="M1.717,59.023l0.004,1l5,-0.023l-0.004,-1l-5,0.023Z" style="fill:#d1d2d3;fill-rule:nonzero;"/><rect x="397.096" y="84.163" width="1" height="5" style="fill:#d1d2d3;fill-rule:nonzero;"/><rect x="397.096" y="74.162" width="1" height="5.001" style="fill:#d1d2d3;fill-rule:nonzero;"/><rect x="397.096" y="64.162" width="1" height="5" style="fill:#d1d2d3;fill-rule:nonzero;"/><rect x="397.096" y="134.162" width="1" height="5" style="fill:#d1d2d3;fill-rule:nonzero;"/><rect x="397.096" y="94.163" width="1" height="5" style="fill:#d1d2d3;fill-rule:nonzero;"/><rect x="397.096" y="164.162" width="1" height="5" style="fill:#d1d2d3;fill-rule:nonzero;"/><rect x="397.096" y="154.162" width="1" height="5" style="fill:#d1d2d3;fill-rule:nonzero;"/><rect x="397.096" y="174.162" width="1" height="5" style="fill:#d1d2d3;fill-rule:nonzero;"/><rect x="397.096" y="104.163" width="1" height="5" style="fill:#d1d2d3;fill-rule:nonzero;"/><rect x="397.096" y="114.163" width="1" height="5" style="fill:#d1d2d3;fill-rule:nonzero;"/><rect x="397.096" y="124.162" width="1" height="5" style="fill:#d1d2d3;fill-rule:nonzero;"/><path d="M380.043,221.192l0.004,1l5,-0.024l-0.004,-1l-5,0.024Z" style="fill:#d1d2d3;fill-rule:nonzero;"/><path d="M382.389,58.945l0.006,1l5,-0.025l-0.006,-1l-5,0.025Z" style="fill:#d1d2d3;fill-rule:nonzero;"/><path d="M397.395,59.868l-0.006,-1l-5,0.026l0.006,1l5,-0.026Z" style="fill:#d1d2d3;fill-rule:nonzero;"/><rect x="397.096" y="214.162" width="1" height="5" style="fill:#d1d2d3;fill-rule:nonzero;"/><path d="M372.389,58.997l0.006,1l5,-0.026l-0.006,-1l-5,0.026Z" style="fill:#d1d2d3;fill-rule:nonzero;"/><path d="M370.043,221.236l0.004,1l5,-0.022l-0.004,-1l-5,0.022Z" style="fill:#d1d2d3;fill-rule:nonzero;"/><path d="M390.043,221.146l0.004,1l5,-0.023l-0.004,-1l-5,0.023Z" style="fill:#d1d2d3;fill-rule:nonzero;"/><rect x="397.096" y="144.162" width="1" height="5" style="fill:#d1d2d3;fill-rule:nonzero;"/><rect x="397.096" y="204.162" width="1" height="5" style="fill:#d1d2d3;fill-rule:nonzero;"/><rect x="397.096" y="184.162" width="1" height="5" style="fill:#d1d2d3;fill-rule:nonzero;"/><rect x="397.096" y="194.162" width="1" height="5" style="fill:#d1d2d3;fill-rule:nonzero;"/><rect x="2.556" y="124.249" width="1" height="5.001" style="fill:#d1d2d3;fill-rule:nonzero;"/><rect x="2.556" y="134.249" width="1" height="5" style="fill:#d1d2d3;fill-rule:nonzero;"/><rect x="2.556" y="84.249" width="1" height="5" style="fill:#d1d2d3;fill-rule:nonzero;"/><rect x="2.556" y="104.249" width="1" height="5" style="fill:#d1d2d3;fill-rule:nonzero;"/><rect x="2.556" y="114.249" width="1" height="5" style="fill:#d1d2d3;fill-rule:nonzero;"/><rect x="2.556" y="94.249" width="1" height="5" style="fill:#d1d2d3;fill-rule:nonzero;"/><rect x="2.556" y="64.249" width="1" height="5" style="fill:#d1d2d3;fill-rule:nonzero;"/><rect x="2.556" y="74.249" width="1" height="5" style="fill:#d1d2d3;fill-rule:nonzero;"/><rect x="2.556" y="194.249" width="1" height="5" style="fill:#d1d2d3;fill-rule:nonzero;"/><rect x="2.556" y="144.249" width="1" height="5" style="fill:#d1d2d3;fill-rule:nonzero;"/><rect x="2.556" y="184.249" width="1" height="5" style="fill:#d1d2d3;fill-rule:nonzero;"/><rect x="2.556" y="204.249" width="1" height="5" style="fill:#d1d2d3;fill-rule:nonzero;"/><rect x="2.556" y="154.249" width="1" height="5" style="fill:#d1d2d3;fill-rule:nonzero;"/><rect x="2.556" y="164.249" width="1" height="5" style="fill:#d1d2d3;fill-rule:nonzero;"/><rect x="2.556" y="174.249" width="1" height="5" style="fill:#d1d2d3;fill-rule:nonzero;"/><rect x="203.873" y="104.249" width="1" height="5" style="fill:#d1d2d3;fill-rule:nonzero;"/><rect x="203.873" y="114.249" width="1" height="5" style="fill:#d1d2d3;fill-rule:nonzero;"/><rect x="203.873" y="124.249" width="1" height="5.001" style="fill:#d1d2d3;fill-rule:nonzero;"/><rect x="203.873" y="64.249" width="1" height="5" style="fill:#d1d2d3;fill-rule:nonzero;"/><rect x="203.873" y="134.249" width="1" height="5" style="fill:#d1d2d3;fill-rule:nonzero;"/><rect x="203.873" y="74.249" width="1" height="5" style="fill:#d1d2d3;fill-rule:nonzero;"/><rect x="203.873" y="94.249" width="1" height="5" style="fill:#d1d2d3;fill-rule:nonzero;"/><rect x="203.873" y="84.249" width="1" height="5" style="fill:#d1d2d3;fill-rule:nonzero;"/><rect x="203.873" y="204.249" width="1" height="5" style="fill:#d1d2d3;fill-rule:nonzero;"/><rect x="203.873" y="194.249" width="1" height="5" style="fill:#d1d2d3;fill-rule:nonzero;"/><rect x="203.873" y="144.249" width="1" height="5" style="fill:#d1d2d3;fill-rule:nonzero;"/><rect x="203.873" y="214.249" width="1" height="1.922" style="fill:#d1d2d3;fill-rule:nonzero;"/><rect x="203.873" y="184.249" width="1" height="5" style="fill:#d1d2d3;fill-rule:nonzero;"/><rect x="203.873" y="174.249" width="1" height="5" style="fill:#d1d2d3;fill-rule:nonzero;"/><rect x="203.873" y="154.249" width="1" height="5" style="fill:#d1d2d3;fill-rule:nonzero;"/><rect x="203.873" y="164.249" width="1" height="5" style="fill:#d1d2d3;fill-rule:nonzero;"/><path d="M289.037,53.206c-0.075,0 -0.149,-0.007 -0.224,-0.02l-13.042,-2.296c-0.702,-0.124 -1.169,-0.792 -1.045,-1.493c0.124,-0.702 0.779,-1.168 1.493,-1.046l12.116,2.133c1.662,-2.965 4.488,-6.019 10.823,-6.019c0.712,0 1.289,0.578 1.289,1.289c-0,0.712 -0.577,1.29 -1.289,1.29c-5.182,0 -7.334,2.178 -8.968,5.448c-0.22,0.443 -0.671,0.714 -1.153,0.714Z" style="fill:#414043;fill-rule:nonzero;"/><path d="M323.84,59.367c-0.713,0 -1.289,-0.577 -1.289,-1.289l-0,-3.081c-0,-0.988 -0.804,-1.792 -1.792,-1.792l-9.238,0.001c-0.712,0 -1.289,-0.577 -1.289,-1.289c0,-0.712 0.576,-1.289 1.289,-1.289l9.238,-0.001c2.409,0 4.37,1.961 4.37,4.37l0,3.081c0,0.712 -0.577,1.289 -1.289,1.289Z" style="fill:#414043;fill-rule:nonzero;"/><path d="M333.018,65.529l-2.526,0c-0.712,0 -1.289,-0.577 -1.289,-1.289c0,-0.712 0.577,-1.289 1.289,-1.289l2.526,0c0.988,0 1.793,-0.804 1.793,-1.792c0,-0.988 -0.805,-1.792 -1.793,-1.792l-25.282,0.001c-0.712,0 -1.289,-0.577 -1.289,-1.289c-0,-0.712 0.577,-1.289 1.289,-1.289l25.282,-0.001c2.41,-0 4.371,1.961 4.371,4.37c0,2.409 -1.961,4.37 -4.371,4.37Z" style="fill:#414043;fill-rule:nonzero;"/><path d="M328.493,71.692l-4.984,0c-0.713,0 -1.289,-0.578 -1.289,-1.29c0,-0.711 0.576,-1.289 1.289,-1.289l4.984,0c0.479,0 0.93,-0.186 1.268,-0.525c0.338,-0.338 0.524,-0.787 0.524,-1.266l0,-1.793l-22.549,0.001c-0.712,-0 -1.289,-0.577 -1.289,-1.289c-0,-0.712 0.577,-1.289 1.289,-1.289l23.838,-0.001c0.342,0 0.669,0.136 0.911,0.378c0.242,0.241 0.378,0.57 0.378,0.911l0,3.081c0.001,1.167 -0.453,2.265 -1.279,3.091c-0.826,0.825 -1.924,1.28 -3.091,1.28Z" style="fill:#414043;fill-rule:nonzero;"/><path d="M301.659,77.854c-0.055,0 -0.11,-0.004 -0.166,-0.011l-3.906,-0.508c-0.044,-0.006 -0.087,-0.014 -0.13,-0.023c-3.729,-0.878 -7.107,-2.767 -9.803,-5.478l-11.348,2.822c-0.696,0.173 -1.391,-0.248 -1.563,-0.94c-0.171,-0.69 0.249,-1.39 0.941,-1.561l12.073,-3.003c0.456,-0.112 0.933,0.029 1.252,0.371l0.107,0.115c2.397,2.554 5.463,4.334 8.87,5.149l3.756,0.489l21.733,-0c0.988,-0 1.791,-0.804 1.791,-1.792l0,-1.792l-17.888,0c-0.712,0 -1.289,-0.577 -1.289,-1.289c0,-0.712 0.577,-1.289 1.289,-1.289l19.177,-0.001c0.343,0 0.67,0.136 0.911,0.378c0.242,0.242 0.378,0.57 0.378,0.911l0,3.082c0,2.409 -1.96,4.37 -4.369,4.37l-21.816,0Z" style="fill:#414043;fill-rule:nonzero;"/><path d="M344.145,30.689l-14.521,4.637l14.521,4.637l-0,-9.274Z" style="fill:#008080;fill-rule:nonzero;"/><path d="M309.019,12.09c-26.138,0 -47.401,21.265 -47.401,47.402c-0,26.138 21.263,47.403 47.401,47.403c26.138,0 47.404,-21.265 47.404,-47.403c-0,-26.137 -21.266,-47.402 -47.404,-47.402Zm0,97.383c-27.56,0 -49.979,-22.421 -49.979,-49.981c-0,-27.559 22.419,-49.98 49.979,-49.98c27.56,0 49.982,22.421 49.982,49.98c-0,27.56 -22.422,49.981 -49.982,49.981Z" style="fill:#414043;fill-rule:nonzero;"/><path d="M298.574,37.394l24.415,0l-0,-2.68c-0,-0.778 -0.632,-1.412 -1.412,-1.412l-23.003,-0l0,4.092Zm25.704,2.578l-26.993,0c-0.713,0 -1.289,-0.577 -1.289,-1.289l0,-6.67c0,-0.712 0.576,-1.289 1.289,-1.289l24.292,-0c2.2,-0 3.991,1.79 3.991,3.99l0,3.969c0,0.712 -0.577,1.289 -1.29,1.289Z" style="fill:#414043;fill-rule:nonzero;"/><path d="M300.843,48.842l5.624,0l0,-8.87l-5.624,0l-0,8.87Zm6.913,2.579l-8.202,0c-0.713,0 -1.289,-0.578 -1.289,-1.29l-0,-11.448c-0,-0.712 0.576,-1.289 1.289,-1.289l8.202,0c0.713,0 1.289,0.577 1.289,1.289l0,11.448c0,0.712 -0.576,1.29 -1.289,1.29Z" style="fill:#414043;fill-rule:nonzero;"/><path d="M307.756,51.421l-8.202,0c-0.713,0 -1.289,-0.578 -1.289,-1.29c-0,-0.711 0.576,-1.289 1.289,-1.289l8.202,0c0.713,0 1.289,0.578 1.289,1.289c0,0.712 -0.576,1.29 -1.289,1.29Z" style="fill:#414043;fill-rule:nonzero;"/><path d="M322.151,94.109l-22.597,0c-0.713,0 -1.289,-0.578 -1.289,-1.29l-0,-16.528c-0,-0.712 0.576,-1.289 1.289,-1.289c0.712,0 1.289,0.577 1.289,1.289l-0,15.239l21.308,-0c1.728,-0 3.228,-0.92 4.012,-2.461c0.784,-1.542 0.645,-3.296 -0.375,-4.694l-4.829,-6.627c-0.419,-0.576 -0.292,-1.382 0.283,-1.801c0.576,-0.419 1.381,-0.292 1.802,0.283l4.829,6.627c1.577,2.165 1.803,4.993 0.588,7.381c-1.214,2.387 -3.632,3.871 -6.31,3.871Z" style="fill:#414043;fill-rule:nonzero;"/><path d="M326.115,36.637l-1.837,0c-0.711,0 -1.289,-0.577 -1.289,-1.289c-0,-0.712 0.578,-1.289 1.289,-1.289l1.837,0c0.713,0 1.289,0.577 1.289,1.289c0,0.712 -0.576,1.289 -1.289,1.289Z" style="fill:#414043;fill-rule:nonzero;"/><path d="M309.045,43.118l6.015,0l0,-3.146l-6.015,0l0,3.146Zm7.304,2.578l-8.593,0c-0.712,0 -1.289,-0.577 -1.289,-1.289l0,-5.724c0,-0.712 0.577,-1.289 1.289,-1.289l8.593,0c0.713,0 1.29,0.577 1.29,1.289l0,5.724c0,0.712 -0.577,1.289 -1.29,1.289Z" style="fill:#414043;fill-rule:nonzero;"/><path d="M314.724,52.87c-0.525,0 -1.019,-0.324 -1.21,-0.846c-1.352,-3.688 -1.335,-7.469 -1.334,-7.628c0.006,-0.707 0.582,-1.277 1.289,-1.277l0.01,0c0.712,0.006 1.284,0.587 1.279,1.298c0,0.034 -0.009,3.485 1.176,6.719c0.245,0.669 -0.098,1.41 -0.767,1.655c-0.145,0.053 -0.296,0.079 -0.443,0.079Z" style="fill:#414043;fill-rule:nonzero;"/><path d="M303.655,80.283l0,8.011l16.872,0c0,0 2.555,-0.233 2.439,-2.206c-0.116,-1.974 -4.084,-5.805 -4.084,-5.805l-15.227,0Z" style="fill:#008080;fill-rule:nonzero;"/><path d="M104.9,12.09c-26.138,0 -47.403,21.265 -47.403,47.403c0,26.138 21.265,47.402 47.403,47.402c26.138,0 47.403,-21.264 47.403,-47.402c0,-26.138 -21.265,-47.403 -47.403,-47.403Zm0,97.383c-27.56,0 -49.981,-22.421 -49.981,-49.98c0,-27.56 22.421,-49.981 49.981,-49.981c27.559,0 49.981,22.421 49.981,49.981c0,27.559 -22.422,49.98 -49.981,49.98Z" style="fill:#414043;fill-rule:nonzero;"/><path d="M78.964,52.602c-0.703,0 -1.278,-0.565 -1.289,-1.27c-0.043,-2.992 -0.022,-6.203 0.061,-9.543l0,-13.163c0,-0.712 0.577,-1.289 1.289,-1.289c0.712,0 1.289,0.577 1.289,1.289l0,13.195c-0.083,3.339 -0.103,6.515 -0.06,9.473c0.01,0.712 -0.56,1.297 -1.27,1.308l-0.02,0Z" style="fill:#414043;fill-rule:nonzero;"/><path d="M105.569,92.517c-11.956,-0 -20.413,-5.661 -24.502,-16.428c-0.253,-0.665 0.082,-1.41 0.746,-1.663c0.669,-0.249 1.412,0.082 1.663,0.748c3.852,10.142 11.681,15.104 23.212,14.747c0.728,-0.037 1.306,0.537 1.329,1.249c0.021,0.711 -0.537,1.306 -1.249,1.328c-0.405,0.013 -0.804,0.019 -1.199,0.019Z" style="fill:#414043;fill-rule:nonzero;"/><path d="M94.163,44.04c-0.349,0 -0.7,-0.016 -1.053,-0.049c-2.428,-0.222 -4.654,-1.185 -6.266,-2.711c-0.518,-0.489 -0.539,-1.305 -0.05,-1.823c0.492,-0.517 1.305,-0.537 1.822,-0.05c1.195,1.131 2.874,1.848 4.729,2.017c2.103,0.193 4.105,-0.349 5.512,-1.482c0.554,-0.447 1.367,-0.358 1.813,0.196c0.446,0.555 0.357,1.367 -0.196,1.813c-1.68,1.35 -3.936,2.089 -6.311,2.089Z" style="fill:#414043;fill-rule:nonzero;"/><path d="M117.003,44.04c-0.35,0 -0.7,-0.016 -1.053,-0.049c-2.426,-0.222 -4.651,-1.184 -6.265,-2.711c-0.518,-0.489 -0.541,-1.305 -0.052,-1.822c0.487,-0.518 1.307,-0.54 1.822,-0.051c1.197,1.131 2.876,1.848 4.73,2.017c2.101,0.193 4.103,-0.349 5.512,-1.482c0.554,-0.447 1.367,-0.358 1.813,0.196c0.445,0.555 0.357,1.367 -0.196,1.813c-1.68,1.35 -3.936,2.089 -6.311,2.089Z" style="fill:#414043;fill-rule:nonzero;"/><path d="M89.869,102.984c-0.146,0 -0.294,-0.025 -0.438,-0.078c-0.67,-0.242 -1.016,-0.981 -0.775,-1.65c2.201,-6.088 3.548,-12.086 3.56,-12.146c0.157,-0.695 0.852,-1.128 1.54,-0.979c0.695,0.156 1.132,0.844 0.979,1.539c-0.057,0.251 -1.394,6.213 -3.654,12.462c-0.19,0.525 -0.685,0.852 -1.212,0.852Z" style="fill:#414043;fill-rule:nonzero;"/><path d="M130.45,52.602l-0.019,0c-0.711,-0.011 -1.28,-0.596 -1.27,-1.308c0.042,-2.967 0.023,-6.143 -0.062,-9.44l0,-13.228c0,-0.712 0.577,-1.289 1.289,-1.289c0.713,0 1.289,0.577 1.289,1.289l0,13.195c0.085,3.299 0.104,6.51 0.062,9.511c-0.01,0.705 -0.586,1.27 -1.289,1.27Z" style="fill:#414043;fill-rule:nonzero;"/><path d="M105.321,92.544c-0.898,0 -1.822,-0.049 -2.773,-0.152c-0.707,-0.076 -1.22,-0.712 -1.143,-1.419c0.076,-0.707 0.689,-1.228 1.42,-1.144c13.319,1.435 20.95,-8.957 23.112,-14.655c0.252,-0.666 1.001,-1 1.662,-0.748c0.666,0.253 1.001,0.997 0.747,1.663c-2.253,5.937 -9.838,16.455 -23.025,16.455Z" style="fill:#414043;fill-rule:nonzero;"/><path d="M119.544,102.984c-0.527,0 -1.022,-0.327 -1.212,-0.852c-2.26,-6.249 -3.596,-12.211 -3.652,-12.462c-0.153,-0.695 0.285,-1.383 0.979,-1.539c0.685,-0.15 1.384,0.284 1.538,0.979c0.013,0.06 1.359,6.058 3.56,12.146c0.241,0.669 -0.105,1.408 -0.774,1.65c-0.145,0.053 -0.292,0.078 -0.439,0.078Z" style="fill:#414043;fill-rule:nonzero;"/><path d="M104.673,83.188l-0.02,0c-14.516,-0.233 -23.219,-6.871 -24.018,-7.505c-0.791,-0.545 -7.43,-5.558 -6.724,-19.72c-0.003,-0.164 0.013,-2.352 1.555,-3.751c0.64,-0.58 1.791,-1.228 3.637,-1.025c15.161,1.671 24.669,-5.789 24.762,-5.865c0.555,-0.445 1.366,-0.357 1.811,0.197c0.446,0.554 0.36,1.363 -0.193,1.81c-0.416,0.336 -10.376,8.211 -26.662,6.421c-0.721,-0.08 -1.25,0.04 -1.615,0.365c-0.587,0.526 -0.718,1.554 -0.718,1.905c-0.657,13.204 5.363,17.375 5.62,17.546c0.033,0.022 0.074,0.052 0.105,0.077c0.083,0.067 8.501,6.742 22.481,6.967c0.712,0.011 1.28,0.598 1.268,1.31c-0.011,0.705 -0.586,1.268 -1.289,1.268Z" style="fill:#414043;fill-rule:nonzero;"/><path d="M104.783,83.188c-0.703,0 -1.278,-0.563 -1.289,-1.268c-0.011,-0.712 0.556,-1.299 1.269,-1.31c13.979,-0.225 22.397,-6.9 22.48,-6.967c0.035,-0.029 0.075,-0.057 0.114,-0.082c0.248,-0.166 6.266,-4.337 5.611,-17.469c-0.002,-0.423 -0.131,-1.451 -0.719,-1.977c-0.363,-0.325 -0.89,-0.445 -1.614,-0.365c-16.288,1.789 -26.246,-6.085 -26.662,-6.421c-0.553,-0.447 -0.639,-1.256 -0.194,-1.81c0.446,-0.554 1.258,-0.642 1.812,-0.197c0.094,0.076 9.595,7.537 24.762,5.865c1.849,-0.2 2.998,0.445 3.636,1.025c1.541,1.4 1.558,3.588 1.555,3.833c0.707,14.083 -5.933,19.093 -6.724,19.638c-0.798,0.635 -9.502,7.272 -24.017,7.505l-0.02,0Z" style="fill:#414043;fill-rule:nonzero;"/><path d="M91.138,29.354c-4.605,0 -9.949,-0.349 -16.16,-1.182c-0.706,-0.094 -1.201,-0.743 -1.107,-1.449c0.094,-0.705 0.733,-1.202 1.449,-1.106c36.033,4.83 41.179,-6.736 41.228,-6.853c0.269,-0.659 1.023,-0.975 1.68,-0.707c0.659,0.268 0.976,1.021 0.707,1.68c-0.189,0.464 -4.245,9.617 -27.797,9.617Z" style="fill:#414043;fill-rule:nonzero;"/><path d="M130.81,29.005c-4.394,0 -10.698,-1.56 -14.245,-9.529c-0.29,-0.65 0.003,-1.412 0.652,-1.702c0.657,-0.288 1.415,0.003 1.702,0.653c4.87,10.939 15.508,7.626 15.958,7.48c0.674,-0.22 1.404,0.15 1.624,0.827c0.221,0.678 -0.151,1.405 -0.828,1.625c-0.052,0.017 -2.071,0.646 -4.863,0.646Z" style="fill:#414043;fill-rule:nonzero;"/><path d="M73.859,31.115l0.001,17.212c0,0 -4.823,2.927 -3.962,10.156c0.86,7.229 1.569,15.147 7.755,20.138c0,-0 1.368,7.574 10.146,12.049l-3.099,7.057c0,0 -24.992,-16.898 -23.925,-39.761c0,0 0.689,-18.245 11.189,-27.195l1.895,0.344Z" style="fill:#008080;fill-rule:nonzero;"/><path d="M136.009,31.115l-0.001,17.212c0,0 4.822,2.927 3.962,10.156c-0.861,7.229 -1.569,15.147 -7.756,20.138c0,-0 -1.367,7.574 -10.145,12.049l3.098,7.057c0,0 24.992,-16.898 23.925,-39.761c0,0 -0.689,-18.245 -11.188,-27.195l-1.895,0.344Z" style="fill:#008080;fill-rule:nonzero;"/><path d="M104.79,174.189c-26.138,0 -47.403,21.264 -47.403,47.402c0,26.138 21.265,47.403 47.403,47.403c26.138,0 47.404,-21.265 47.404,-47.403c0,-26.138 -21.266,-47.402 -47.404,-47.402Zm0,97.383c-27.559,0 -49.981,-22.421 -49.981,-49.981c0,-27.56 22.422,-49.981 49.981,-49.981c27.56,0 49.982,22.421 49.982,49.981c0,27.56 -22.422,49.981 -49.982,49.981Z" style="fill:#414043;fill-rule:nonzero;"/><path d="M80.268,187.761c3.204,-0 5.81,2.618 5.81,5.836c-0,3.219 -2.606,5.838 -5.81,5.838c-3.203,-0 -5.808,-2.619 -5.808,-5.838c0,-3.218 2.605,-5.836 5.808,-5.836Zm0,14.028c4.503,0 8.164,-3.675 8.164,-8.192c0,-4.517 -3.661,-8.192 -8.164,-8.192c-4.501,0 -8.163,3.675 -8.163,8.192c-0,4.517 3.662,8.192 8.163,8.192Z" style="fill:#414043;fill-rule:nonzero;"/><path d="M88.901,254.251l-4.687,0l-1.872,-25.526c-0.044,-0.616 -0.556,-1.091 -1.173,-1.091l-1.8,0c-0.604,0 -1.111,0.458 -1.171,1.06l-2.43,24.315l-4.02,-3.59l0.907,-39.716l0.293,-1.461c0.566,-1.174 1.91,-2.002 3.478,-2.002l7.686,0c1.346,0 2.52,0.615 3.186,1.529l0.601,2.644l1.002,43.838Zm5.422,-26.217l-4.075,-17.915l-0.014,-0.657c-0.009,-3.077 -2.752,-5.577 -6.122,-5.577l-7.686,0c-3.372,0 -6.115,2.505 -6.12,5.558l-3.731,18.621c-0.127,0.638 0.284,1.258 0.923,1.386c0.078,0.015 0.155,0.023 0.232,0.023c0.55,-0 1.042,-0.387 1.153,-0.947l1.113,-5.554l-0.616,26.936c-0.008,0.345 0.135,0.676 0.394,0.906l6.152,5.492c0.219,0.197 0.5,0.3 0.784,0.3c0.144,-0 0.288,-0.027 0.426,-0.08c0.413,-0.161 0.702,-0.539 0.746,-0.98l2.345,-23.477l1.718,23.446c0.045,0.615 0.556,1.091 1.174,1.091l6.987,-0c0.318,-0 0.621,-0.128 0.842,-0.354c0.222,-0.227 0.342,-0.534 0.335,-0.851l-0.764,-33.47l1.506,6.626c0.126,0.545 0.611,0.916 1.148,0.916c0.086,-0 0.174,-0.01 0.261,-0.03c0.636,-0.144 1.032,-0.774 0.889,-1.409Z" style="fill:#414043;fill-rule:nonzero;"/><path d="M128.827,187.761c3.203,-0 5.808,2.618 5.808,5.836c0,3.219 -2.605,5.838 -5.808,5.838c-3.204,-0 -5.81,-2.619 -5.81,-5.838c-0,-3.218 2.606,-5.836 5.81,-5.836Zm-0,14.028c4.501,0 8.163,-3.675 8.163,-8.192c-0,-4.517 -3.662,-8.192 -8.163,-8.192c-4.502,0 -8.165,3.675 -8.165,8.192c0,4.517 3.663,8.192 8.165,8.192Z" style="fill:#414043;fill-rule:nonzero;"/><path d="M137.362,249.999l-2.949,2.941l-3.522,-24.299c-0.084,-0.578 -0.58,-1.007 -1.165,-1.007l-1.8,0c-0.617,0 -1.128,0.475 -1.174,1.091l-1.87,25.526l-4.688,0l1.019,-44.548l0.292,-1.461c0.567,-1.174 1.911,-2.002 3.477,-2.002l7.687,0c1.347,0 2.522,0.616 3.188,1.532l0.6,2.637l0.905,39.59Zm5.517,-21.965l-4.073,-17.92l-0.015,-0.652c-0.009,-3.077 -2.752,-5.577 -6.122,-5.577l-7.687,0c-3.371,0 -6.114,2.505 -6.119,5.558l-3.731,18.621c-0.128,0.638 0.285,1.258 0.923,1.386c0.079,0.015 0.156,0.023 0.232,0.023c0.549,-0 1.042,-0.387 1.154,-0.947l1.112,-5.555l-0.741,32.43c-0.007,0.317 0.114,0.624 0.336,0.851c0.22,0.226 0.524,0.354 0.842,0.354l6.986,-0c0.617,-0 1.13,-0.476 1.174,-1.091l1.765,-24.089l3.505,24.172c0.063,0.44 0.369,0.807 0.793,0.948c0.122,0.041 0.248,0.06 0.371,0.06c0.307,-0 0.607,-0.12 0.832,-0.343l4.966,-4.953c0.227,-0.227 0.353,-0.538 0.346,-0.861l-0.652,-28.519l1.506,6.627c0.124,0.545 0.61,0.916 1.147,0.916c0.087,-0 0.176,-0.01 0.262,-0.03c0.634,-0.144 1.032,-0.774 0.888,-1.409Z" style="fill:#414043;fill-rule:nonzero;"/><path d="M113.731,213.986l-18.502,0c-0.356,0 -0.644,-0.289 -0.644,-0.644c0,-0.357 0.288,-0.645 0.644,-0.645l18.502,0c0.356,0 0.644,0.288 0.644,0.645c0,0.355 -0.288,0.644 -0.644,0.644Z" style="fill:#414043;fill-rule:nonzero;"/><path d="M96.118,211.001l0,4.704c0,0.321 -0.356,0.515 -0.626,0.341l-3.653,-2.362c-0.247,-0.16 -0.247,-0.523 0.001,-0.682l3.654,-2.343c0.269,-0.173 0.624,0.021 0.624,0.342Z" style="fill:#414043;fill-rule:nonzero;"/><path d="M112.841,215.705l0,-4.704c0,-0.321 0.356,-0.515 0.626,-0.341l3.653,2.363c0.247,0.16 0.246,0.522 -0.002,0.681l-3.653,2.343c-0.27,0.173 -0.624,-0.021 -0.624,-0.342Z" style="fill:#414043;fill-rule:nonzero;"/><path d="M85.706,252.645l-1.761,-24.037c-0.105,-1.447 -1.324,-2.581 -2.776,-2.581l-1.8,0c-1.437,0 -2.628,1.079 -2.77,2.509l-2.115,21.173l-1.114,-0.994l0.887,-38.835l0.219,-1.086c0.36,-0.573 1.12,-0.947 1.95,-0.947l7.686,-0c0.666,-0 1.295,0.245 1.706,0.655l0.479,2.109l0.96,42.034l-1.551,-0Z" style="fill:#008080;fill-rule:nonzero;"/><path d="M121.837,252.645l0.977,-42.764l0.219,-1.087c0.359,-0.573 1.118,-0.947 1.949,-0.947l7.687,-0c0.668,-0 1.296,0.246 1.708,0.656l0.477,2.104l0.886,38.741l-0.196,0.194l-3.064,-21.131c-0.196,-1.359 -1.38,-2.384 -2.754,-2.384l-1.799,0c-1.452,0 -2.672,1.134 -2.777,2.581l-1.761,24.037l-1.552,-0Z" style="fill:#008080;fill-rule:nonzero;"/><path d="M83.943,193.428c0,2.028 -1.645,3.673 -3.674,3.673c-2.029,0 -3.674,-1.645 -3.674,-3.673c-0,-2.03 1.645,-3.675 3.674,-3.675c2.029,0 3.674,1.645 3.674,3.675Z" style="fill:#008080;fill-rule:nonzero;"/><path d="M132.5,193.428c-0,2.028 -1.645,3.673 -3.674,3.673c-2.029,0 -3.674,-1.645 -3.674,-3.673c0,-2.03 1.645,-3.675 3.674,-3.675c2.029,0 3.674,1.645 3.674,3.675Z" style="fill:#008080;fill-rule:nonzero;"/><text x="278.218px" y="292.68px" style="font-family:'DINCondensed-Bold', 'DIN Condensed';font-weight:700;font-stretch:condensed;font-size:16px;">CUCI T<tspan x="308.73px 315.242px " y="292.68px 292.68px ">AN</tspan>GAN</text><text x="64.503px" y="292.68px" style="font-family:'DINCondensed-Bold', 'DIN Condensed';font-weight:700;font-stretch:condensed;font-size:16px;">JAGA JARAK 1 M</text><text x="253.346px" y="128.06px" style="font-family:'DINCondensed-Bold', 'DIN Condensed';font-weight:700;font-stretch:condensed;font-size:16px;">GUNAKAN DISINFEKT<tspan x="354.034px 360.546px " y="128.06px 128.06px ">AN</tspan></text><text x="66.695px" y="128.06px" style="font-family:'DINCondensed-Bold', 'DIN Condensed';font-weight:700;font-stretch:condensed;font-size:16px;">W<tspan x="75.703px 82.215px " y="128.06px 128.06px ">AJ</tspan>IB MASKER</text></g></svg>